<?xml version="1.0" standalone="no"?>
<!DOCTYPE svg PUBLIC "-//W3C//DTD SVG 20010904//EN"
 "http://www.w3.org/TR/2001/REC-SVG-20010904/DTD/svg10.dtd">
<svg version="1.0" xmlns="http://www.w3.org/2000/svg"
 width="200.000000pt" height="100.000000pt" viewBox="0 0 200.000000 100.000000"
 preserveAspectRatio="xMidYMid meet">

<g transform="translate(0.000000,100.000000) scale(0.100000,-0.100000)"
fill="#000000" stroke="none">
<path d="M478 834 c-33 -17 -45 -57 -28 -88 9 -18 9 -27 -1 -43 -18 -29 -4
-66 33 -87 29 -18 30 -20 13 -30 -35 -21 -55 -46 -55 -70 0 -60 67 -80 232
-70 l118 7 53 -35 c51 -34 107 -58 134 -58 24 0 5 18 -26 25 -15 3 -37 14 -47
24 -43 41 -84 92 -101 124 -59 114 -83 167 -83 179 0 23 -30 17 -31 -6 0 -12
-3 -15 -6 -8 -9 23 -23 12 -23 -18 l0 -31 -72 3 c-65 3 -73 5 -73 23 0 18 8
20 68 23 55 2 67 6 67 20 0 32 -16 41 -75 44 -45 2 -60 7 -60 18 0 10 18 18
60 25 49 8 60 13 57 28 -3 14 -14 17 -65 17 -35 -1 -74 -7 -89 -16z m216 -240
c4 -9 4 -19 1 -22 -7 -8 -35 19 -29 29 8 14 21 11 28 -7z m44 -66 c31 -31 14
-38 -102 -38 -115 0 -134 6 -122 35 7 19 205 22 224 3z"/>
<path d="M740 829 c0 -21 2 -21 184 -17 162 3 211 8 195 22 -2 2 -88 6 -191
10 -187 7 -188 6 -188 -15z"/>
<path d="M764 734 c3 -9 6 -20 6 -26 0 -7 47 -9 148 -5 81 4 158 7 171 7 13 0
21 3 18 6 -4 4 -66 9 -139 11 -73 3 -140 9 -150 14 -28 15 -61 11 -54 -7z"/>
<path d="M800 640 c0 -12 31 -16 85 -9 58 7 52 9 -27 14 -32 2 -58 0 -58 -5z"/>
<path d="M905 470 c17 -19 29 -21 95 -19 41 2 81 7 88 12 8 6 12 6 12 -2 0 -6
4 -11 8 -11 5 0 9 7 9 16 0 11 -8 14 -33 11 -18 -3 -36 -2 -39 1 -3 4 -40 8
-83 10 l-76 3 19 -21z"/>
<path d="M1412 179 c-2 -30 1 -39 13 -39 9 0 15 9 15 25 0 27 17 34 26 10 4
-8 10 -15 15 -15 20 0 -12 38 -38 48 -27 9 -28 8 -31 -29z"/>
<path d="M1543 208 c-25 -32 -26 -40 -5 -29 11 6 28 8 37 5 17 -7 18 15 0 28
-14 11 -21 10 -32 -4z"/>
<path d="M490 193 c0 -29 15 -44 52 -52 50 -12 98 10 98 44 0 14 -4 25 -10 25
-5 0 -10 -8 -10 -19 0 -27 -24 -43 -62 -39 -26 2 -34 8 -38 28 -6 29 -30 39
-30 13z"/>
<path d="M737 204 c-16 -16 -7 -53 15 -60 48 -15 118 -2 118 22 0 19 -26 18
-34 -1 -3 -9 -18 -15 -40 -15 -31 0 -36 4 -43 31 -5 17 -12 27 -16 23z"/>
<path d="M270 184 c0 -12 7 -27 15 -34 19 -16 92 -15 111 1 18 15 18 29 -1 29
-8 0 -15 -7 -15 -15 0 -11 -11 -15 -40 -15 -33 0 -42 5 -54 28 -14 24 -15 25
-16 6z"/>
<path d="M956 191 c-15 -24 23 -53 69 -53 34 0 63 14 68 34 l6 23 -19 -22
c-27 -34 -87 -32 -100 2 -10 27 -16 30 -24 16z"/>
<path d="M1191 184 c-1 -31 23 -46 70 -46 56 1 93 33 50 45 -12 3 -18 -1 -17
-11 2 -35 -74 -26 -92 10 -10 23 -11 23 -11 2z"/>
</g>
</svg>
